<?xml version="1.0" encoding="UTF-8" standalone="no"?>
<svg
   xmlns:dc="http://purl.org/dc/elements/1.1/"
   xmlns:cc="http://creativecommons.org/ns#"
   xmlns:rdf="http://www.w3.org/1999/02/22-rdf-syntax-ns#"
   xmlns:svg="http://www.w3.org/2000/svg"
   xmlns="http://www.w3.org/2000/svg"
   xmlns:sodipodi="http://sodipodi.sourceforge.net/DTD/sodipodi-0.dtd"
   xmlns:inkscape="http://www.inkscape.org/namespaces/inkscape"
   inkscape:export-ydpi="922.17059"
   inkscape:export-xdpi="922.17059"
   inkscape:export-filename="/home/mweya/Schreibtisch/Labs/client/assets/icon.png"
   inkscape:version="1.0beta2 (unknown)"
   sodipodi:docname="code.svg"
   id="svg416"
   version="1.1"
   style="-ms-transform: rotate(360deg); -webkit-transform: rotate(360deg); transform: rotate(360deg);"
   viewBox="0 0 20 20"
   preserveAspectRatio="xMidYMid meet"
   height="1em"
   width="1em">
  <metadata
     id="metadata422">
    <rdf:RDF>
      <cc:Work
         rdf:about="">
        <dc:format>image/svg+xml</dc:format>
        <dc:type
           rdf:resource="http://purl.org/dc/dcmitype/StillImage" />
        <dc:title></dc:title>
      </cc:Work>
    </rdf:RDF>
  </metadata>
  <defs
     id="defs420" />
  <sodipodi:namedview
     inkscape:current-layer="svg416"
     inkscape:window-maximized="1"
     inkscape:window-y="27"
     inkscape:window-x="0"
     inkscape:cy="9.8912402"
     inkscape:cx="-20.907151"
     inkscape:zoom="11.795363"
     inkscape:pagecheckerboard="true"
     showgrid="false"
     id="namedview418"
     inkscape:window-height="1016"
     inkscape:window-width="1920"
     inkscape:pageshadow="2"
     inkscape:pageopacity="0"
     guidetolerance="10"
     gridtolerance="10"
     objecttolerance="10"
     borderopacity="1"
     inkscape:document-rotation="0"
     bordercolor="#666666"
     pagecolor="#ffffff" />
  <path
     style="fill:#0066ff;fill-opacity:1"
     id="path414"
     fill="currentColor"
     d="M5.719 14.75a.997.997 0 0 1-.664-.252L-.005 10l5.341-4.748a1 1 0 0 1 1.328 1.495L3.005 10l3.378 3.002a1 1 0 0 1-.664 1.748zm8.945-.002L20.005 10l-5.06-4.498a.999.999 0 1 0-1.328 1.495L16.995 10l-3.659 3.252a1 1 0 0 0 1.328 1.496zm-4.678 1.417l2-12a1 1 0 1 0-1.972-.329l-2 12a1 1 0 1 0 1.972.329z" />
</svg>
